<?xml version="1.0" encoding="UTF-8" standalone="no"?>
<!DOCTYPE svg PUBLIC "-//W3C//DTD SVG 1.1//EN"
 "http://www.w3.org/Graphics/SVG/1.1/DTD/svg11.dtd">
<!-- Generated by graphviz version 2.43.0 (0)
 -->
<!-- Title: %3 Pages: 1 -->
<svg width="720pt" height="584pt"
 viewBox="0.00 0.00 720.00 583.84" xmlns="http://www.w3.org/2000/svg" xmlns:xlink="http://www.w3.org/1999/xlink">
<g id="graph0" class="graph" transform="scale(0.89 0.89) rotate(0) translate(4 649.58)">
<title>%3</title>
<polygon fill="white" stroke="transparent" points="-4,4 -4,-649.58 802,-649.58 802,4 -4,4"/>
<!-- NewsTags -->
<g id="node1" class="node">
<title>NewsTags</title>
<polygon fill="none" stroke="black" points="758,-479.58 669,-479.58 669,-443.58 758,-443.58 758,-479.58"/>
<text text-anchor="middle" x="713.5" y="-457.88" font-family="Times,serif" font-size="14.00">NewsTags</text>
</g>
<!-- Notifications -->
<g id="node2" class="node">
<title>Notifications</title>
<polygon fill="none" stroke="black" points="508.5,-263.58 401.5,-263.58 401.5,-227.58 508.5,-227.58 508.5,-263.58"/>
<text text-anchor="middle" x="455" y="-241.88" font-family="Times,serif" font-size="14.00">Notifications</text>
</g>
<!-- BloodInventoryHistory -->
<g id="node3" class="node">
<title>BloodInventoryHistory</title>
<polygon fill="none" stroke="black" points="544.5,-642.58 365.5,-642.58 365.5,-606.58 544.5,-606.58 544.5,-642.58"/>
<text text-anchor="middle" x="455" y="-620.88" font-family="Times,serif" font-size="14.00">BloodInventoryHistory</text>
</g>
<!-- BloodArticles -->
<g id="node4" class="node">
<title>BloodArticles</title>
<polygon fill="none" stroke="black" points="511,-371.58 399,-371.58 399,-335.58 511,-335.58 511,-371.58"/>
<text text-anchor="middle" x="455" y="-349.88" font-family="Times,serif" font-size="14.00">BloodArticles</text>
</g>
<!-- ArticleTags -->
<g id="node10" class="node">
<title>ArticleTags</title>
<polygon fill="none" stroke="black" points="762,-414.58 665,-414.58 665,-378.58 762,-378.58 762,-414.58"/>
<text text-anchor="middle" x="713.5" y="-392.88" font-family="Times,serif" font-size="14.00">ArticleTags</text>
</g>
<!-- BloodArticles&#45;&gt;ArticleTags -->
<g id="edge5" class="edge">
<title>BloodArticles&#45;&gt;ArticleTags</title>
<path fill="none" stroke="black" d="M511.03,-362.81C553.41,-369.91 611.84,-379.71 654.86,-386.92"/>
<polygon fill="black" stroke="black" points="654.45,-390.4 664.89,-388.6 655.61,-383.49 654.45,-390.4"/>
<text text-anchor="middle" x="588.5" y="-382.38" font-family="Times,serif" font-size="14.00">1 — ∞</text>
</g>
<!-- BloodRequestHistory -->
<g id="node5" class="node">
<title>BloodRequestHistory</title>
<polygon fill="none" stroke="black" points="798,-59.58 629,-59.58 629,-23.58 798,-23.58 798,-59.58"/>
<text text-anchor="middle" x="713.5" y="-37.88" font-family="Times,serif" font-size="14.00">BloodRequestHistory</text>
</g>
<!-- BloodRequests (Doctor) -->
<g id="node6" class="node">
<title>BloodRequests (Doctor)</title>
<polygon fill="none" stroke="black" points="548,-533.58 362,-533.58 362,-497.58 548,-497.58 548,-533.58"/>
<text text-anchor="middle" x="455" y="-511.88" font-family="Times,serif" font-size="14.00">BloodRequests (Doctor)</text>
</g>
<!-- Appointments -->
<g id="node7" class="node">
<title>Appointments</title>
<polygon fill="none" stroke="black" points="513,-479.58 397,-479.58 397,-443.58 513,-443.58 513,-479.58"/>
<text text-anchor="middle" x="455" y="-457.88" font-family="Times,serif" font-size="14.00">Appointments</text>
</g>
<!-- DonationReminders -->
<g id="node8" class="node">
<title>DonationReminders</title>
<polygon fill="none" stroke="black" points="534,-317.58 376,-317.58 376,-281.58 534,-281.58 534,-317.58"/>
<text text-anchor="middle" x="455" y="-295.88" font-family="Times,serif" font-size="14.00">DonationReminders</text>
</g>
<!-- BloodDonationHistory -->
<g id="node9" class="node">
<title>BloodDonationHistory</title>
<polygon fill="none" stroke="black" points="542.5,-209.58 367.5,-209.58 367.5,-173.58 542.5,-173.58 542.5,-209.58"/>
<text text-anchor="middle" x="455" y="-187.88" font-family="Times,serif" font-size="14.00">BloodDonationHistory</text>
</g>
<!-- RequestComponents -->
<g id="node11" class="node">
<title>RequestComponents</title>
<polygon fill="none" stroke="black" points="795.5,-121.58 631.5,-121.58 631.5,-85.58 795.5,-85.58 795.5,-121.58"/>
<text text-anchor="middle" x="713.5" y="-99.88" font-family="Times,serif" font-size="14.00">RequestComponents</text>
</g>
<!-- BloodRequests -->
<g id="node12" class="node">
<title>BloodRequests</title>
<polygon fill="none" stroke="black" points="516.5,-101.58 393.5,-101.58 393.5,-65.58 516.5,-65.58 516.5,-101.58"/>
<text text-anchor="middle" x="455" y="-79.88" font-family="Times,serif" font-size="14.00">BloodRequests</text>
</g>
<!-- BloodRequests&#45;&gt;BloodRequestHistory -->
<g id="edge15" class="edge">
<title>BloodRequests&#45;&gt;BloodRequestHistory</title>
<path fill="none" stroke="black" d="M516.79,-73.63C547.26,-68.64 584.84,-62.48 618.89,-56.91"/>
<polygon fill="black" stroke="black" points="619.56,-60.35 628.86,-55.28 618.43,-53.44 619.56,-60.35"/>
<text text-anchor="middle" x="588.5" y="-69.38" font-family="Times,serif" font-size="14.00">1 — ∞</text>
</g>
<!-- BloodRequests&#45;&gt;RequestComponents -->
<g id="edge14" class="edge">
<title>BloodRequests&#45;&gt;RequestComponents</title>
<path fill="none" stroke="black" d="M516.79,-88.32C547.93,-90.75 586.5,-93.76 621.15,-96.46"/>
<polygon fill="black" stroke="black" points="621.04,-99.96 631.28,-97.25 621.58,-92.98 621.04,-99.96"/>
<text text-anchor="middle" x="588.5" y="-99.38" font-family="Times,serif" font-size="14.00">1 — ∞</text>
</g>
<!-- Patients -->
<g id="node13" class="node">
<title>Patients</title>
<polygon fill="none" stroke="black" points="237.5,-89.58 162.5,-89.58 162.5,-53.58 237.5,-53.58 237.5,-89.58"/>
<text text-anchor="middle" x="200" y="-67.88" font-family="Times,serif" font-size="14.00">Patients</text>
</g>
<!-- Patients&#45;&gt;BloodRequests -->
<g id="edge13" class="edge">
<title>Patients&#45;&gt;BloodRequests</title>
<path fill="none" stroke="black" d="M237.77,-70.9C266.67,-70.6 307.93,-70.66 344,-72.58 356.63,-73.25 370.04,-74.31 383,-75.51"/>
<polygon fill="black" stroke="black" points="382.98,-79.02 393.27,-76.49 383.65,-72.05 382.98,-79.02"/>
<text text-anchor="middle" x="312.5" y="-76.38" font-family="Times,serif" font-size="14.00">0..1 — ∞</text>
</g>
<!-- BloodInventory -->
<g id="node14" class="node">
<title>BloodInventory</title>
<polygon fill="none" stroke="black" points="263,-645.58 137,-645.58 137,-609.58 263,-609.58 263,-645.58"/>
<text text-anchor="middle" x="200" y="-623.88" font-family="Times,serif" font-size="14.00">BloodInventory</text>
</g>
<!-- BloodInventory&#45;&gt;BloodInventoryHistory -->
<g id="edge9" class="edge">
<title>BloodInventory&#45;&gt;BloodInventoryHistory</title>
<path fill="none" stroke="black" d="M263.21,-626.84C290.82,-626.52 323.99,-626.12 354.87,-625.76"/>
<polygon fill="black" stroke="black" points="355.28,-629.25 365.24,-625.63 355.2,-622.25 355.28,-629.25"/>
<text text-anchor="middle" x="312.5" y="-630.38" font-family="Times,serif" font-size="14.00">1 — ∞</text>
</g>
<!-- News -->
<g id="node15" class="node">
<title>News</title>
<polygon fill="none" stroke="black" points="483,-587.58 427,-587.58 427,-551.58 483,-551.58 483,-587.58"/>
<text text-anchor="middle" x="455" y="-565.88" font-family="Times,serif" font-size="14.00">News</text>
</g>
<!-- News&#45;&gt;NewsTags -->
<g id="edge7" class="edge">
<title>News&#45;&gt;NewsTags</title>
<path fill="none" stroke="black" d="M483.38,-562.87C501.9,-558.01 526.75,-550.86 548,-542.58 591.11,-525.79 638.29,-501.95 671.02,-484.49"/>
<polygon fill="black" stroke="black" points="672.71,-487.56 679.86,-479.74 669.39,-481.39 672.71,-487.56"/>
<text text-anchor="middle" x="588.5" y="-538.38" font-family="Times,serif" font-size="14.00">1 — ∞</text>
</g>
<!-- Tags -->
<g id="node16" class="node">
<title>Tags</title>
<polygon fill="none" stroke="black" points="482,-425.58 428,-425.58 428,-389.58 482,-389.58 482,-425.58"/>
<text text-anchor="middle" x="455" y="-403.88" font-family="Times,serif" font-size="14.00">Tags</text>
</g>
<!-- Tags&#45;&gt;NewsTags -->
<g id="edge8" class="edge">
<title>Tags&#45;&gt;NewsTags</title>
<path fill="none" stroke="black" d="M482.01,-413.06C523.29,-421.75 604.67,-438.88 658.84,-450.28"/>
<polygon fill="black" stroke="black" points="658.45,-453.78 668.96,-452.41 659.89,-446.93 658.45,-453.78"/>
<text text-anchor="middle" x="588.5" y="-442.38" font-family="Times,serif" font-size="14.00">1 — ∞</text>
</g>
<!-- Tags&#45;&gt;ArticleTags -->
<g id="edge6" class="edge">
<title>Tags&#45;&gt;ArticleTags</title>
<path fill="none" stroke="black" d="M482.01,-406.47C522.21,-404.74 600.45,-401.39 654.54,-399.07"/>
<polygon fill="black" stroke="black" points="654.85,-402.56 664.69,-398.63 654.55,-395.56 654.85,-402.56"/>
<text text-anchor="middle" x="588.5" y="-406.38" font-family="Times,serif" font-size="14.00">1 — ∞</text>
</g>
<!-- ActivityLog -->
<g id="node17" class="node">
<title>ActivityLog</title>
<polygon fill="none" stroke="black" points="504,-155.58 406,-155.58 406,-119.58 504,-119.58 504,-155.58"/>
<text text-anchor="middle" x="455" y="-133.88" font-family="Times,serif" font-size="14.00">ActivityLog</text>
</g>
<!-- Roles -->
<g id="node18" class="node">
<title>Roles</title>
<polygon fill="none" stroke="black" points="56,-317.58 0,-317.58 0,-281.58 56,-281.58 56,-317.58"/>
<text text-anchor="middle" x="28" y="-295.88" font-family="Times,serif" font-size="14.00">Roles</text>
</g>
<!-- Users -->
<g id="node19" class="node">
<title>Users</title>
<polygon fill="none" stroke="black" points="229.5,-317.58 170.5,-317.58 170.5,-281.58 229.5,-281.58 229.5,-317.58"/>
<text text-anchor="middle" x="200" y="-295.88" font-family="Times,serif" font-size="14.00">Users</text>
</g>
<!-- Roles&#45;&gt;Users -->
<g id="edge1" class="edge">
<title>Roles&#45;&gt;Users</title>
<path fill="none" stroke="black" d="M56.31,-299.58C84.39,-299.58 128.38,-299.58 160.09,-299.58"/>
<polygon fill="black" stroke="black" points="160.33,-303.08 170.33,-299.58 160.33,-296.08 160.33,-303.08"/>
<text text-anchor="middle" x="96.5" y="-303.38" font-family="Times,serif" font-size="14.00">1 — ∞</text>
</g>
<!-- Users&#45;&gt;Notifications -->
<g id="edge19" class="edge">
<title>Users&#45;&gt;Notifications</title>
<path fill="none" stroke="black" d="M229.83,-292.49C245.02,-288.81 263.99,-284.32 281,-280.58 317.48,-272.56 358.44,-264.24 391.35,-257.73"/>
<polygon fill="black" stroke="black" points="392.15,-261.14 401.29,-255.77 390.8,-254.27 392.15,-261.14"/>
<text text-anchor="middle" x="312.5" y="-284.38" font-family="Times,serif" font-size="14.00">1 — ∞</text>
</g>
<!-- Users&#45;&gt;BloodInventoryHistory -->
<g id="edge10" class="edge">
<title>Users&#45;&gt;BloodInventoryHistory</title>
<path fill="none" stroke="black" d="M201.59,-317.87C204.03,-364.24 216.57,-487.86 281,-560.58 300.47,-582.56 328.19,-597 355.74,-606.49"/>
<polygon fill="black" stroke="black" points="354.88,-609.89 365.47,-609.65 357.04,-603.23 354.88,-609.89"/>
<text text-anchor="middle" x="312.5" y="-604.38" font-family="Times,serif" font-size="14.00">1 — ∞</text>
</g>
<!-- Users&#45;&gt;BloodArticles -->
<g id="edge2" class="edge">
<title>Users&#45;&gt;BloodArticles</title>
<path fill="none" stroke="black" d="M229.83,-306.67C245.02,-310.35 263.99,-314.84 281,-318.58 316.67,-326.42 356.62,-334.55 389.13,-340.99"/>
<polygon fill="black" stroke="black" points="388.48,-344.43 398.97,-342.94 389.84,-337.57 388.48,-344.43"/>
<text text-anchor="middle" x="312.5" y="-335.38" font-family="Times,serif" font-size="14.00">1 — ∞</text>
</g>
<!-- Users&#45;&gt;BloodRequestHistory -->
<g id="edge16" class="edge">
<title>Users&#45;&gt;BloodRequestHistory</title>
<path fill="none" stroke="black" d="M206.27,-281.32C221.42,-229.32 265.01,-83.23 281,-67.58 376.18,25.58 546.77,2.07 642.47,-21.12"/>
<polygon fill="black" stroke="black" points="641.79,-24.56 652.34,-23.57 643.48,-17.76 641.79,-24.56"/>
<text text-anchor="middle" x="455" y="-21.38" font-family="Times,serif" font-size="14.00">1 — ∞</text>
</g>
<!-- Users&#45;&gt;BloodRequests (Doctor) -->
<g id="edge12" class="edge">
<title>Users&#45;&gt;BloodRequests (Doctor)</title>
<path fill="none" stroke="black" d="M207.56,-317.69C218.82,-346.76 244.22,-404.33 281,-441.58 305.02,-465.91 338.32,-482.72 369.3,-494.08"/>
<polygon fill="black" stroke="black" points="368.23,-497.42 378.82,-497.44 370.56,-490.82 368.23,-497.42"/>
<text text-anchor="middle" x="312.5" y="-485.38" font-family="Times,serif" font-size="14.00">0..1 — ∞</text>
</g>
<!-- Users&#45;&gt;Appointments -->
<g id="edge18" class="edge">
<title>Users&#45;&gt;Appointments</title>
<path fill="none" stroke="black" d="M217.55,-317.62C244.92,-346.41 302.51,-402.72 362,-434.58 369.78,-438.75 378.29,-442.35 386.89,-445.44"/>
<polygon fill="black" stroke="black" points="386,-448.83 396.6,-448.71 388.24,-442.2 386,-448.83"/>
<text text-anchor="middle" x="312.5" y="-426.38" font-family="Times,serif" font-size="14.00">1 — ∞</text>
</g>
<!-- Users&#45;&gt;DonationReminders -->
<g id="edge20" class="edge">
<title>Users&#45;&gt;DonationReminders</title>
<path fill="none" stroke="black" d="M229.53,-299.58C262.47,-299.58 318.24,-299.58 365.94,-299.58"/>
<polygon fill="black" stroke="black" points="365.99,-303.08 375.99,-299.58 365.99,-296.08 365.99,-303.08"/>
<text text-anchor="middle" x="312.5" y="-303.38" font-family="Times,serif" font-size="14.00">1 — ∞</text>
</g>
<!-- Users&#45;&gt;BloodDonationHistory -->
<g id="edge17" class="edge">
<title>Users&#45;&gt;BloodDonationHistory</title>
<path fill="none" stroke="black" d="M225.69,-281.39C241.06,-270.61 261.56,-257.22 281,-247.58 309.72,-233.35 342.87,-221.6 372.41,-212.6"/>
<polygon fill="black" stroke="black" points="373.7,-215.87 382.28,-209.65 371.7,-209.16 373.7,-215.87"/>
<text text-anchor="middle" x="312.5" y="-251.38" font-family="Times,serif" font-size="14.00">1 — ∞</text>
</g>
<!-- Users&#45;&gt;BloodRequests -->
<g id="edge11" class="edge">
<title>Users&#45;&gt;BloodRequests</title>
<path fill="none" stroke="black" d="M206.77,-281.42C217.21,-251.09 241.86,-189.68 281,-151.58 308.89,-124.44 348.89,-107.77 383.41,-97.74"/>
<polygon fill="black" stroke="black" points="384.75,-101.01 393.45,-94.96 382.88,-94.26 384.75,-101.01"/>
<text text-anchor="middle" x="312.5" y="-155.38" font-family="Times,serif" font-size="14.00">1 — ∞</text>
</g>
<!-- Users&#45;&gt;News -->
<g id="edge3" class="edge">
<title>Users&#45;&gt;News</title>
<path fill="none" stroke="black" d="M203.83,-317.66C210.64,-355.81 231.22,-445.58 281,-500.58 316.55,-539.86 377.47,-557.13 416.72,-564.47"/>
<polygon fill="black" stroke="black" points="416.23,-567.93 426.68,-566.2 417.43,-561.04 416.23,-567.93"/>
<text text-anchor="middle" x="312.5" y="-545.38" font-family="Times,serif" font-size="14.00">1 — ∞</text>
</g>
<!-- Users&#45;&gt;ActivityLog -->
<g id="edge4" class="edge">
<title>Users&#45;&gt;ActivityLog</title>
<path fill="none" stroke="black" d="M212.75,-281.54C226.95,-260.86 252.49,-226.93 281,-204.58 314.71,-178.16 360.09,-161.1 395.91,-150.82"/>
<polygon fill="black" stroke="black" points="397.04,-154.14 405.74,-148.09 395.17,-147.39 397.04,-154.14"/>
<text text-anchor="middle" x="312.5" y="-208.38" font-family="Times,serif" font-size="14.00">1 — ∞</text>
</g>
</g>
</svg>
